# xmcd CD database file
#
# Track frame offsets:
#	150
#	16956
#	33709
#	50641
#	72341
#	89459
#	118854
#	135657
#	153502
#	178521
#	197251
#	214478
#	233948
#	252730
#	273378
#
# Disc length: 4079 seconds
#
# Revision: 1
# Processed by: cddbd v1.5.2PL0 Copyright (c) Steve Scherf et al.
# Submitted via: CDex 1.70beta2
#
DISCID=e30fed0f
DTITLE=Various Artist - Montecarlo Nights - New Classics Vol 4
DYEAR=2009
DGENRE=Jazz
TTITLE0=Nouvelle Vague - Don't Go
TTITLE1=Louie Austen And Senor Coconut - Reality
TTITLE2=Mary J Blige - Overjoyed
TTITLE3=Goldfrapp - UK Girls
TTITLE4=St.Clair - Wake Up Everybody
TTITLE5=Shirley Bassey - Slave To The Rhythm
TTITLE6=Ana Belen - Sin Salida
TTITLE7=Fabrizio Bosso And Javier Girotto Latin Mood - Quizas Quizas Qui
TTITLE8=Juliana Aquino - Can't Take My Eyes Off You
TTITLE9=Vila Black - Broken Wings
TTITLE10=Till Bronner - This Guy's In Love
TTITLE11=Jessica Brando - Time Is Running Out
TTITLE12=Deep Dive Corp - Enjoy The Silence
TTITLE13=Eldissa - Ring My Bell
TTITLE14=Cappell Meister - Speak Low
EXTD=YEAR: 2009
EXTT0=
EXTT1=
EXTT2=
EXTT3=
EXTT4=
EXTT5=
EXTT6=
EXTT7=
EXTT8=
EXTT9=
EXTT10=
EXTT11=
EXTT12=
EXTT13=
EXTT14=
PLAYORDER=
